<?xml version="1.0" standalone="no"?>
<!DOCTYPE svg PUBLIC "-//W3C//DTD SVG 20010904//EN"
 "http://www.w3.org/TR/2001/REC-SVG-20010904/DTD/svg10.dtd">
<svg version="1.0" xmlns="http://www.w3.org/2000/svg"
 width="29.000000pt" height="29.000000pt" viewBox="0 0 29.000000 29.000000"
 preserveAspectRatio="xMidYMid meet">
<metadata>
Created by potrace 1.13, written by Peter Selinger 2001-2015
</metadata>
<g transform="translate(0.000000,29.000000) scale(0.100000,-0.100000)"
fill="#000000" stroke="none">
<path d="M12 278 c-17 -17 -17 -249 0 -266 7 -7 39 -12 75 -12 l63 0 0 55 c0
48 -2 55 -20 55 -13 0 -20 7 -20 20 0 13 7 20 20 20 15 0 20 7 20 28 0 35 27
62 63 62 35 0 39 -37 5 -42 -15 -2 -24 -11 -26 -25 -3 -19 1 -23 22 -23 19 0
26 -5 26 -20 0 -15 -7 -20 -25 -20 -24 0 -25 -3 -25 -55 l0 -55 38 0 c21 0 43
5 50 12 17 17 17 249 0 266 -17 17 -249 17 -266 0z"/>
</g>
</svg>
